# xmcd
#
# Track frame offsets:
#	150
#	19082
#	40857
#	62602
#	86700
#	110347
#
# Disc length: 1899 seconds
# Revision: 0
# Processed by: cddbd v1.5.2PL0 Copyright (c) Steve Scherf et al.
# Submitted via: dBpowerAMP V12.0
#
DISCID=43076906
DTITLE=C+C Music Factory feat. Freedom Williams and Zelma Davis - Things That Make You Go Hmmmm…
DYEAR=1991
DGENRE=House
TTITLE0=Things That Make You Go Hmmmm… [The Radio Mix 1]
TTITLE1=Things That Make You Go Hmmmm… [The Radio Mix 2]
TTITLE2=Things That Make You Go Hmmmm… [The LP Radio Mix]
TTITLE3=Things That Make You Go Hmmmm… [The Clivillés and Cole Pumped Album Mix]
TTITLE4=Things That Make You Go Hmmmm… [The Clivillés and Cole Deep House Mix]
TTITLE5=Things That Make You Go Hmmmm… [The Clivillés and Cole Classic House Mix]
EXTD=
EXTT0=
EXTT1=
EXTT2=
EXTT3=
EXTT4=
EXTT5=
PLAYORDER=
